<svg width="156" height="156" viewBox="0 0 156 156" fill="none" xmlns="http://www.w3.org/2000/svg">
<path d="M78.0004 9.75C55.4535 9.75 37.1113 27.6352 37.1113 50.182C37.1113 55.1789 38.1777 60.6328 40.0973 65.5383H40.0668L40.2496 65.9039C40.402 66.2391 40.5543 66.5742 40.7066 66.9094L78.0004 146.25L115.111 67.3055L115.294 66.9398C115.446 66.6047 115.629 66.2695 115.782 65.9039L115.904 65.5687C117.884 60.6633 118.889 55.4836 118.889 50.243C118.889 27.6352 100.547 9.75 78.0004 9.75ZM111.242 63.8016L111.181 63.9539C111.089 64.1367 110.998 64.35 110.907 64.5328L110.602 65.1727L78.0004 134.459L45.3684 65.1727L45.0941 64.5633C45.0027 64.3805 44.9113 64.1977 44.8504 64.0148C43.0527 59.5969 42.0777 54.6914 42.0777 50.182C42.0777 30.3773 58.1957 14.6859 78.0309 14.6859C97.866 14.6859 113.984 30.3469 113.984 50.182C113.954 54.8133 113.039 59.3836 111.242 63.8016Z" fill="white"/>
<path d="M78 29.25C67.2445 29.25 58.5 37.9945 58.5 48.75C58.5 59.5055 67.2445 68.25 78 68.25C88.7555 68.25 97.5 59.5055 97.5 48.75C97.5 37.9945 88.7555 29.25 78 29.25ZM78 63.0398C70.1086 63.0398 63.7102 56.6414 63.7102 48.75C63.7102 40.8586 70.1086 34.4602 78 34.4602C85.8914 34.4602 92.2898 40.8586 92.2898 48.75C92.2898 56.6414 85.8914 63.0398 78 63.0398Z" fill="white"/>
</svg>
