<svg width="32" height="32" viewBox="0 0 32 32" fill="none" xmlns="http://www.w3.org/2000/svg">
<path d="M29 5.99929H3H2.92C2.85032 5.98982 2.77968 5.98982 2.71 5.99929L2.54 6.06929C2.4856 6.09549 2.43511 6.12915 2.39 6.16929C2.33311 6.20798 2.28252 6.2552 2.24 6.30929L2.18 6.36929C2.17624 6.39917 2.17624 6.42941 2.18 6.45929C2.14734 6.51992 2.12055 6.58355 2.1 6.64929C2.05804 6.7289 2.02452 6.81269 2 6.89929C2 6.89929 2 6.99929 2 6.99929V24.9993C2 25.2645 2.10536 25.5189 2.29289 25.7064C2.48043 25.8939 2.73478 25.9993 3 25.9993H29C29.2652 25.9993 29.5196 25.8939 29.7071 25.7064C29.8946 25.5189 30 25.2645 30 24.9993V6.99929C30 6.73407 29.8946 6.47972 29.7071 6.29218C29.5196 6.10464 29.2652 5.99929 29 5.99929ZM16 14.8093L6.2 7.99929H27.09L16 14.8093ZM4 23.9993V8.90929L15.43 16.8193C15.4879 16.8533 15.5481 16.8833 15.61 16.9093H15.69C15.7883 16.9545 15.8928 16.9848 16 16.9993C16.1422 16.9955 16.282 16.9614 16.41 16.8993H16.48L28 9.78929V23.9993H4Z" fill="white"/>
</svg>
